<svg width="1052" height="171" viewBox="0 0 1052 171" fill="none" xmlns="http://www.w3.org/2000/svg">
<path d="M0 58.75L51.5 8.25H124L51.5 81.25V162.25H0V58.75Z" fill="#0E78B6"/>
<path d="M139.5 90.75V8.75H190.5V112.25L139.5 162.75H67.5L139.5 90.75Z" fill="#2BB6D7"/>
<path d="M255.351 31.4438H276.556V117.403H337.363V136H255.351V31.4438ZM351.746 111.115C351.746 107.325 352.571 103.868 354.221 100.747C355.871 97.6248 358.346 94.9491 361.646 92.7192C364.946 90.4448 369.049 88.7056 373.955 87.5015C378.905 86.2528 384.658 85.6284 391.213 85.6284C396.074 85.6284 401.181 85.9852 406.532 86.6987C411.928 87.4123 417.481 88.5049 423.189 89.9766C422.966 87.4792 422.208 85.1825 420.915 83.0864C419.621 80.9458 417.815 79.1174 415.496 77.6011C413.222 76.0402 410.457 74.8361 407.201 73.9888C403.99 73.1414 400.333 72.7178 396.23 72.7178C394.001 72.7178 391.548 72.8516 388.872 73.1191C386.196 73.3867 383.431 73.7881 380.577 74.3232C377.723 74.8584 374.891 75.5273 372.082 76.3301C369.317 77.1328 366.73 78.0916 364.322 79.2065L358.301 62.9512C361.289 61.8809 364.478 60.8997 367.867 60.0078C371.301 59.1159 374.802 58.3577 378.37 57.7334C381.937 57.0645 385.505 56.5516 389.073 56.1948C392.64 55.8381 396.097 55.6597 399.441 55.6597C414.203 55.6597 425.174 59.4281 432.354 66.9648C439.534 74.5016 443.124 86.0521 443.124 101.616V136H423.323V128.575C421.271 129.779 419.019 130.916 416.566 131.986C414.158 133.057 411.527 133.993 408.673 134.796C405.819 135.599 402.742 136.223 399.441 136.669C396.186 137.16 392.73 137.405 389.073 137.405C382.918 137.405 377.5 136.736 372.817 135.398C368.179 134.06 364.299 132.209 361.178 129.846C358.056 127.482 355.692 124.717 354.087 121.551C352.526 118.34 351.746 114.861 351.746 111.115ZM372.617 110.446C372.617 111.74 372.951 112.988 373.62 114.192C374.289 115.352 375.359 116.4 376.831 117.336C378.303 118.228 380.176 118.964 382.45 119.544C384.769 120.079 387.556 120.347 390.812 120.347C394.291 120.347 397.658 120.035 400.913 119.41C404.169 118.786 407.201 117.961 410.011 116.935C412.82 115.909 415.362 114.728 417.637 113.39C419.911 112.052 421.806 110.669 423.323 109.242V105.764C420.29 104.916 417.28 104.203 414.292 103.623C411.349 103.043 408.517 102.597 405.796 102.285C403.121 101.928 400.579 101.683 398.17 101.549C395.807 101.416 393.733 101.349 391.949 101.349C388.248 101.349 385.171 101.594 382.718 102.084C380.265 102.575 378.28 103.244 376.764 104.091C375.248 104.894 374.178 105.853 373.553 106.968C372.929 108.083 372.617 109.242 372.617 110.446ZM488.612 168.243H468.811V57.0645H488.612V64.4897C490.351 63.2856 492.403 62.1484 494.766 61.0781C497.13 60.0078 499.672 59.0713 502.392 58.2686C505.112 57.4658 507.922 56.8415 510.821 56.3955C513.72 55.9049 516.618 55.6597 519.517 55.6597C526.207 55.6597 532.339 56.6408 537.913 58.603C543.532 60.5653 548.349 63.3302 552.362 66.8979C556.376 70.4657 559.498 74.7469 561.728 79.7417C564.002 84.6919 565.139 90.1772 565.139 96.1978C565.139 102.486 563.957 108.172 561.594 113.256C559.23 118.295 555.952 122.621 551.76 126.233C547.613 129.801 542.663 132.566 536.91 134.528C531.201 136.446 525.002 137.405 518.313 137.405C515.459 137.405 512.627 137.226 509.817 136.87C507.052 136.513 504.377 136.022 501.79 135.398C499.248 134.774 496.84 134.038 494.565 133.19C492.336 132.299 490.351 131.34 488.612 130.314V168.243ZM488.612 111.182C490.619 112.788 492.737 114.148 494.967 115.263C497.197 116.378 499.471 117.292 501.79 118.005C504.109 118.719 506.45 119.254 508.814 119.611C511.178 119.923 513.474 120.079 515.704 120.079C520.253 120.079 524.289 119.477 527.812 118.273C531.38 117.024 534.368 115.33 536.776 113.189C539.229 111.048 541.102 108.529 542.395 105.63C543.688 102.731 544.335 99.5871 544.335 96.1978C544.335 93.0314 543.688 90.0435 542.395 87.2339C541.146 84.4243 539.318 81.9715 536.91 79.8755C534.546 77.7349 531.67 76.0625 528.28 74.8584C524.936 73.6097 521.167 72.9854 516.975 72.9854C514.299 72.9854 511.624 73.2529 508.948 73.7881C506.272 74.2786 503.685 74.9922 501.188 75.9287C498.735 76.8652 496.416 78.0024 494.231 79.3403C492.09 80.6782 490.217 82.1722 488.612 83.8223V111.182Z" fill="#0E78B6"/>
<path d="M592.499 71.915H578.986V57.0645H592.499C592.499 51.7129 593.257 46.9634 594.773 42.8159C596.29 38.6239 598.475 35.1007 601.329 32.2466C604.228 29.3478 607.729 27.1403 611.832 25.624C615.979 24.1077 620.639 23.3496 625.812 23.3496C629.425 23.3496 632.97 23.7064 636.449 24.4199C639.927 25.0889 643.004 26.07 645.68 27.3633L638.656 44.02C637.586 43.3957 636.07 42.8159 634.107 42.2808C632.19 41.7456 630.071 41.478 627.752 41.478C623.204 41.478 619.524 42.7713 616.715 45.3579C613.95 47.8999 612.478 51.8021 612.3 57.0645H637.251V71.915H612.3V136H592.499V71.915ZM652.503 56.9976H672.237V95.5288C672.237 99.1857 672.639 102.53 673.441 105.563C674.244 108.551 675.604 111.115 677.522 113.256C679.484 115.396 682.071 117.069 685.282 118.273C688.537 119.432 692.573 120.012 697.39 120.012C699.664 120.012 701.961 119.767 704.28 119.276C706.643 118.786 708.896 118.117 711.036 117.27C713.177 116.378 715.161 115.33 716.99 114.125C718.863 112.921 720.468 111.606 721.806 110.179V56.9976H741.607V136H721.806V129.244C716.945 132.142 712.062 134.216 707.156 135.465C702.251 136.714 697.59 137.338 693.175 137.338C685.951 137.338 679.752 136.468 674.579 134.729C669.45 132.99 665.236 130.47 661.936 127.17C658.68 123.825 656.294 119.745 654.778 114.928C653.262 110.067 652.503 104.537 652.503 98.3384V56.9976ZM766.759 57.0645H786.56V68.4365C790.931 65.181 795.546 62.3714 800.407 60.0078C805.268 57.6442 810.107 55.8381 814.923 54.5894L820.743 72.7178C813.117 73.4759 806.405 75.1929 800.608 77.8687C794.855 80.4998 790.172 84.2236 786.56 89.04V136H766.759V57.0645ZM834.992 25.022H854.792V64.4897C856.532 63.2856 858.583 62.1484 860.947 61.0781C863.31 60.0078 865.852 59.0713 868.573 58.2686C871.293 57.4658 874.103 56.8415 877.001 56.3955C879.9 55.9049 882.799 55.6597 885.698 55.6597C892.387 55.6597 898.519 56.6408 904.094 58.603C909.713 60.5653 914.529 63.3302 918.543 66.8979C922.557 70.4657 925.678 74.7469 927.908 79.7417C930.183 84.6919 931.32 90.1772 931.32 96.1978C931.32 102.486 930.138 108.172 927.774 113.256C925.411 118.295 922.133 122.621 917.941 126.233C913.793 129.801 908.843 132.566 903.09 134.528C897.382 136.446 891.183 137.405 884.494 137.405C881.639 137.405 878.808 137.226 875.998 136.87C873.233 136.513 870.557 136.022 867.971 135.398C865.429 134.774 863.021 134.038 860.746 133.19C858.516 132.299 856.532 131.34 854.792 130.314V136H834.992V25.022ZM854.792 111.182C856.799 112.788 858.918 114.148 861.147 115.263C863.377 116.378 865.652 117.292 867.971 118.005C870.29 118.719 872.631 119.254 874.995 119.611C877.358 119.923 879.655 120.079 881.885 120.079C886.434 120.079 890.47 119.477 893.993 118.273C897.56 117.024 900.548 115.33 902.957 113.189C905.409 111.048 907.282 108.529 908.576 105.63C909.869 102.731 910.516 99.5871 910.516 96.1978C910.516 93.0314 909.869 90.0435 908.576 87.2339C907.327 84.4243 905.499 81.9715 903.09 79.8755C900.727 77.7349 897.85 76.0625 894.461 74.8584C891.116 73.6097 887.348 72.9854 883.156 72.9854C880.48 72.9854 877.804 73.2529 875.128 73.7881C872.453 74.2786 869.866 74.9922 867.369 75.9287C864.916 76.8652 862.597 78.0024 860.412 79.3403C858.271 80.6782 856.398 82.1722 854.792 83.8223V111.182ZM944.899 96.5322C944.899 90.8685 946.037 85.5615 948.311 80.6113C950.63 75.6611 953.908 71.3353 958.145 67.6338C962.426 63.9323 967.577 61.0112 973.597 58.8706C979.662 56.73 986.463 55.6597 994 55.6597C1001.54 55.6597 1008.32 56.73 1014.34 58.8706C1020.4 61.0112 1025.55 63.9323 1029.79 67.6338C1034.07 71.3353 1037.35 75.6611 1039.62 80.6113C1041.94 85.5615 1043.1 90.8685 1043.1 96.5322C1043.1 102.196 1041.94 107.503 1039.62 112.453C1037.35 117.403 1034.07 121.729 1029.79 125.431C1025.55 129.132 1020.4 132.053 1014.34 134.194C1008.32 136.334 1001.54 137.405 994 137.405C986.463 137.405 979.662 136.334 973.597 134.194C967.577 132.053 962.426 129.132 958.145 125.431C953.908 121.729 950.63 117.403 948.311 112.453C946.037 107.503 944.899 102.196 944.899 96.5322ZM965.704 96.5322C965.704 99.6986 966.328 102.709 967.577 105.563C968.87 108.373 970.721 110.87 973.129 113.055C975.582 115.196 978.547 116.913 982.026 118.206C985.549 119.455 989.54 120.079 994 120.079C998.46 120.079 1002.43 119.455 1005.91 118.206C1009.43 116.913 1012.4 115.196 1014.8 113.055C1017.26 110.87 1019.11 108.373 1020.36 105.563C1021.65 102.709 1022.3 99.6986 1022.3 96.5322C1022.3 93.3659 1021.65 90.3556 1020.36 87.5015C1019.11 84.6473 1017.26 82.1499 1014.8 80.0093C1012.4 77.8241 1009.43 76.1071 1005.91 74.8584C1002.43 73.5651 998.46 72.9185 994 72.9185C989.54 72.9185 985.549 73.5651 982.026 74.8584C978.547 76.1071 975.582 77.8241 973.129 80.0093C970.721 82.1499 968.87 84.6473 967.577 87.5015C966.328 90.3556 965.704 93.3659 965.704 96.5322Z" fill="#2BB6D7"/>
</svg>
